<svg xmlns="http://www.w3.org/2000/svg" enable-background="new 0 0 512 512" viewBox="0 0 512 512"><path fill="#595bd4" fill-rule="evenodd" d="M422.141,367.964v-2.717l6.077,6.077h12.736L338.75,430.321l-0.713,0.909h-1.947
		c-0.375,0-0.74-0.053-1.091-0.151h-0.814l-1.164-1.13c-0.852-0.827-1.233-1.895-1.233-3.04V323.232
		c0-0.128,0.005-0.255,0.015-0.382c0.068-1.288,0.708-2.314,1.66-3.02l0.839-0.919h1.765c0.792,0,1.54,0.233,2.207,0.639
		L422.141,367.964L422.141,367.964z M371.271,242.145c29.991,0,58.818,10.033,82.337,28.633l1.789,1.415l13.494-5.192v-56.905
		l-35.634-13.718c-1.229-0.473-2.151-1.52-2.456-2.802c-4.753-19.959-12.646-38.988-23.406-56.46
		c-0.691-1.122-0.774-2.516-0.24-3.718l15.506-34.921l-40.243-40.243l-34.93,15.511c-1.207,0.536-2.595,0.441-3.719-0.251
		c-17.47-10.75-36.486-18.647-56.44-23.396c-1.283-0.305-2.341-1.218-2.816-2.451l-13.713-35.645h-56.905l-13.728,35.643
		c-0.474,1.23-1.52,2.147-2.802,2.452c-19.952,4.748-38.976,12.643-56.441,23.396c-1.124,0.692-2.512,0.786-3.718,0.25
		l-34.931-15.511L62.03,98.477l15.516,34.926c0.534,1.203,0.44,2.602-0.25,3.722c-10.757,17.467-18.658,36.487-23.406,56.442
		c-0.305,1.284-1.225,2.337-2.456,2.811l-35.635,13.718v56.914l35.635,13.714c1.232,0.474,2.15,1.523,2.456,2.807
		c4.756,19.956,12.634,38.987,23.391,56.459c0.689,1.12,0.789,2.515,0.255,3.718L62.03,378.63l40.244,40.233l34.93-15.516
		c1.204-0.535,2.596-0.44,3.718,0.251c17.471,10.755,36.484,18.655,56.441,23.405c1.284,0.305,2.328,1.226,2.802,2.457
		l13.728,35.643h59.321l-5.276-6.517c-19.194-23.709-29.6-53-29.6-83.514c0-3.376,0.135-6.753,0.389-10.119l0.306-4.052
		l-4.056-0.242C170.537,356.818,120,303.13,120,238.551c0-67.457,54.887-122.338,122.343-122.338
		c67.31,0,122.142,54.663,122.338,121.973l0.012,4.053l4.053-0.066C369.588,242.159,370.43,242.145,371.271,242.145z" clip-rule="evenodd" class="color9bc9ff svgShape"></path><path fill="#167ffc" fill-rule="evenodd" d="M426.15,375.224c0,0.009-0.052,0.047-0.141,0.099h0.014l-89.804,51.841c-0.08,0.047-0.137,0.066-0.127,0.066
		c-0.009,0-0.071-0.019-0.151-0.066c-0.08-0.042-0.118-0.085-0.132-0.085l0,0c-0.01-0.009-0.019-0.066-0.019-0.17V323.232
		c0-0.099,0.019-0.16,0.009-0.151c0-0.009,0.052-0.047,0.142-0.099c0.08-0.052,0.141-0.071,0.127-0.071
		c0.014,0,0.071,0.019,0.151,0.071l89.804,51.841c0.075,0.047,0.118,0.09,0.118,0.08c0.009,0.009,0.019,0.071,0.019,0.17
		C426.16,375.172,426.15,375.234,426.15,375.224L426.15,375.224z M434.018,360.964l-89.8-51.841c-5.099-2.943-11.18-2.943-16.288,0
		c-5.09,2.948-8.142,8.217-8.142,14.109v103.677c0,5.892,3.052,11.161,8.151,14.114c2.552,1.467,5.34,2.198,8.142,2.198
		c2.797,0,5.59-0.731,8.137-2.198l89.8-51.841c0,0,0,0,0-0.009c5.104-2.939,8.142-8.213,8.142-14.1
		C442.16,369.182,439.113,363.913,434.018,360.964L434.018,360.964z M371.271,496.001c66.69,0,120.928-54.247,120.928-120.928
		c0-66.681-54.238-120.932-120.928-120.932c-66.681,0-120.932,54.251-120.932,120.932
		C250.339,441.754,304.59,496.001,371.271,496.001L371.271,496.001z M236.89,348.752c11.142-56.978,57.728-101.418,115.781-109.338
		c0-0.283,0.019-0.58,0.019-0.863c0-60.837-49.501-110.338-110.347-110.338c-60.846,0-110.343,49.501-110.343,110.338
		C132.001,297.562,178.568,345.903,236.89,348.752L236.89,348.752z M203.899,428.023l12.741,33.081h48.19
		c-19.053-23.534-30.491-53.473-30.491-86.031c0-3.5,0.141-6.981,0.401-10.42C168.601,360.71,116,305.661,116,238.551
		c0-69.667,56.681-126.338,126.343-126.338c69.535,0,126.136,56.469,126.338,125.961c0.859-0.014,1.731-0.028,2.59-0.028
		c32.01,0,61.478,11.038,84.818,29.496l8.802-3.387v-51.412l-33.072-12.732c-2.462-0.948-4.297-3.047-4.91-5.609
		c-4.651-19.543-12.359-38.152-22.921-55.289c-1.377-2.25-1.571-5.033-0.49-7.439l14.392-32.411l-36.359-36.359L349.11,77.4
		c-2.41,1.071-5.189,0.892-7.439-0.5c-17.151-10.548-35.741-18.26-55.27-22.911c-2.571-0.608-4.67-2.448-5.623-4.906l-12.727-33.081
		H216.64l-12.741,33.081c-0.939,2.458-3.038,4.297-5.609,4.906C178.761,58.64,160.162,66.352,143.02,76.9
		c-2.25,1.392-5.028,1.571-7.439,0.5L103.16,63.003L66.801,99.363l14.401,32.416c1.071,2.41,0.877,5.193-0.5,7.443
		c-10.562,17.137-18.274,35.737-22.92,55.271c-0.613,2.571-2.453,4.67-4.91,5.618l-33.072,12.732v51.421l33.072,12.727
		c2.458,0.943,4.288,3.043,4.91,5.613c4.646,19.538,12.359,38.138,22.906,55.289c1.392,2.241,1.571,5.029,0.505,7.439
		l-14.392,32.411l36.359,36.35l32.421-14.401c2.41-1.071,5.189-0.882,7.439,0.5c17.152,10.562,35.742,18.269,55.271,22.92
		C200.861,423.721,202.96,425.56,203.899,428.023L203.899,428.023z M469.401,279.67l6.368-2.458c3.08-1.18,5.123-4.151,5.123-7.462
		v-62.398c0-3.311-2.042-6.279-5.123-7.467l-34.317-13.213c-4.764-18.321-12.033-35.859-21.642-52.209l14.93-33.628
		c1.34-3.024,0.689-6.561-1.651-8.901l-44.128-44.119c-2.34-2.34-5.882-3.005-8.901-1.66l-33.638,14.939
		c-16.359-9.614-33.883-16.882-52.2-21.642L281.009,5.134c-1.189-3.089-4.16-5.132-7.467-5.132H211.14
		c-3.307,0-6.269,2.043-7.458,5.132l-13.213,34.317c-18.321,4.76-35.85,12.029-52.199,21.642l-33.638-14.939
		c-3.019-1.345-6.562-0.693-8.901,1.66L51.602,91.933c-2.34,2.34-3,5.877-1.651,8.906l14.93,33.633
		c-9.609,16.349-16.883,33.878-21.642,52.199L8.922,199.884c-3.094,1.189-5.123,4.156-5.123,7.467v62.398
		c0,3.311,2.029,6.283,5.123,7.462l34.317,13.208c4.76,18.331,12.033,35.864,21.642,52.223l-14.93,33.619
		c-1.349,3.028-0.689,6.571,1.651,8.91l44.129,44.119c2.34,2.34,5.882,3,8.901,1.651l33.638-14.93
		c16.359,9.609,33.878,16.878,52.199,21.637l13.213,34.322c1.189,3.09,4.151,5.128,7.458,5.128h68.922
		c24.227,21.694,56.209,34.902,91.21,34.902c75.507,0,136.928-61.431,136.928-136.928C508.2,338.011,493.402,304.34,469.401,279.67z
		" clip-rule="evenodd" class="color57a4ff svgShape"></path></svg>