<svg xmlns="http://www.w3.org/2000/svg" xmlns:xlink="http://www.w3.org/1999/xlink" width="500" zoomAndPan="magnify"
    viewBox="0 0 375 306.749988" height="409" preserveAspectRatio="xMidYMid meet" version="1.0">
    <defs>
        <clipPath id="id1">
            <path d="M 0.152344 0 L 374.847656 0 L 374.847656 306.5 L 0.152344 306.5 Z M 0.152344 0 "
                clip-rule="nonzero" />
        </clipPath>
        <clipPath id="id2">
            <path d="M 1.566406 0 L 94.535156 0 L 94.535156 306.5 L 1.566406 306.5 Z M 1.566406 0 "
                clip-rule="nonzero" />
        </clipPath>
        <clipPath id="id3">
            <path d="M 113 218 L 207 218 L 207 306.5 L 113 306.5 Z M 113 218 " clip-rule="nonzero" />
        </clipPath>
    </defs>
    <g clip-path="url(#id1)">
        <path fill="rgb(100%, 100%, 100%)"
            d="M 0.152344 0 L 374.847656 0 L 374.847656 313.246094 L 0.152344 313.246094 Z M 0.152344 0 "
            fill-opacity="1" fill-rule="nonzero" />
        <path fill="rgb(100%, 100%, 100%)"
            d="M 0.152344 0 L 374.847656 0 L 374.847656 306.5 L 0.152344 306.5 Z M 0.152344 0 " fill-opacity="1"
            fill-rule="nonzero" />
        <path fill="rgb(100%, 100%, 100%)"
            d="M 0.152344 0 L 374.847656 0 L 374.847656 306.5 L 0.152344 306.5 Z M 0.152344 0 " fill-opacity="1"
            fill-rule="nonzero" />
        <path fill="rgb(100%, 100%, 100%)"
            d="M 0.152344 0 L 374.847656 0 L 374.847656 306.5 L 0.152344 306.5 Z M 0.152344 0 " fill-opacity="1"
            fill-rule="nonzero" />
    </g>
    <g clip-path="url(#id2)">
        <path fill="rgb(34.509277%, 75.689697%, 95.689392%)"
            d="M 15.5 0 L 80.601562 0 C 88.292969 0 94.535156 6.234375 94.535156 13.917969 L 94.535156 292.554688 C 94.535156 300.273438 88.292969 306.507812 80.601562 306.507812 L 15.5 306.507812 C 7.808594 306.507812 1.566406 300.273438 1.566406 292.554688 L 1.566406 13.917969 C 1.566406 6.234375 7.808594 0 15.5 0 Z M 15.5 13.917969 L 15.5 292.554688 L 80.601562 292.554688 L 80.601562 13.917969 L 15.5 13.917969 "
            fill-opacity="1" fill-rule="nonzero" />
    </g>
    <path fill="rgb(34.509277%, 75.689697%, 95.689392%)"
        d="M 127.085938 0 L 192.15625 0 C 199.847656 0 206.085938 6.234375 206.085938 13.917969 L 206.085938 74.308594 C 206.085938 81.996094 199.847656 88.226562 192.15625 88.226562 L 127.085938 88.226562 C 119.359375 88.226562 113.121094 81.996094 113.121094 74.308594 L 113.121094 13.917969 C 113.121094 6.234375 119.359375 0 127.085938 0 "
        fill-opacity="1" fill-rule="nonzero" />
    <path fill="rgb(34.509277%, 75.689697%, 95.689392%)"
        d="M 231.640625 4.652344 L 366.464844 4.652344 C 370.328125 4.652344 373.433594 8.476562 373.433594 11.609375 C 373.433594 15.46875 370.328125 18.570312 366.464844 18.570312 L 231.640625 18.570312 C 227.808594 18.570312 224.707031 14.710938 224.707031 11.609375 C 224.707031 7.75 227.808594 4.652344 231.640625 4.652344 "
        fill-opacity="1" fill-rule="nonzero" />
    <path fill="rgb(34.509277%, 75.689697%, 95.689392%)"
        d="M 231.640625 37.136719 L 366.464844 37.136719 C 370.328125 37.136719 373.433594 40.996094 373.433594 44.097656 C 373.433594 47.957031 370.328125 51.058594 366.464844 51.058594 L 231.640625 51.058594 C 227.808594 51.058594 224.707031 47.230469 224.707031 44.097656 C 224.707031 40.273438 227.808594 37.136719 231.640625 37.136719 "
        fill-opacity="1" fill-rule="nonzero" />
    <path fill="rgb(34.509277%, 75.689697%, 95.689392%)"
        d="M 231.640625 69.660156 L 366.464844 69.660156 C 370.328125 69.660156 373.433594 73.519531 373.433594 76.617188 C 373.433594 80.476562 370.328125 83.578125 366.464844 83.578125 L 231.640625 83.578125 C 227.808594 83.578125 224.707031 79.75 224.707031 76.617188 C 224.707031 72.757812 227.808594 69.660156 231.640625 69.660156 "
        fill-opacity="1" fill-rule="nonzero" />
    <path fill="rgb(34.509277%, 75.689697%, 95.689392%)"
        d="M 231.640625 111.449219 L 366.464844 111.449219 C 370.328125 111.449219 373.433594 115.308594 373.433594 118.40625 C 373.433594 122.265625 370.328125 125.367188 366.464844 125.367188 L 231.640625 125.367188 C 227.808594 125.367188 224.707031 121.539062 224.707031 118.40625 C 224.707031 114.582031 227.808594 111.449219 231.640625 111.449219 "
        fill-opacity="1" fill-rule="nonzero" />
    <path fill="rgb(34.509277%, 75.689697%, 95.689392%)"
        d="M 231.640625 143.96875 L 366.464844 143.96875 C 370.328125 143.96875 373.433594 147.792969 373.433594 150.929688 C 373.433594 154.785156 370.328125 157.886719 366.464844 157.886719 L 231.640625 157.886719 C 227.808594 157.886719 224.707031 154.027344 224.707031 150.929688 C 224.707031 147.070312 227.808594 143.96875 231.640625 143.96875 "
        fill-opacity="1" fill-rule="nonzero" />
    <path fill="rgb(34.509277%, 75.689697%, 95.689392%)"
        d="M 231.640625 176.457031 L 366.464844 176.457031 C 370.328125 176.457031 373.433594 180.316406 373.433594 183.414062 C 373.433594 187.273438 370.328125 190.375 366.464844 190.375 L 231.640625 190.375 C 227.808594 190.375 224.707031 186.550781 224.707031 183.414062 C 224.707031 179.589844 227.808594 176.457031 231.640625 176.457031 "
        fill-opacity="1" fill-rule="nonzero" />
    <path fill="rgb(34.509277%, 75.689697%, 95.689392%)"
        d="M 231.640625 222.894531 L 366.464844 222.894531 C 370.328125 222.894531 373.433594 226.753906 373.433594 229.855469 C 373.433594 233.714844 370.328125 236.847656 366.464844 236.847656 L 231.640625 236.847656 C 227.808594 236.847656 224.707031 232.988281 224.707031 229.855469 C 224.707031 226.03125 227.808594 222.894531 231.640625 222.894531 "
        fill-opacity="1" fill-rule="nonzero" />
    <path fill="rgb(34.509277%, 75.689697%, 95.689392%)"
        d="M 231.640625 255.417969 L 366.464844 255.417969 C 370.328125 255.417969 373.433594 259.277344 373.433594 262.375 C 373.433594 266.234375 370.328125 269.335938 366.464844 269.335938 L 231.640625 269.335938 C 227.808594 269.335938 224.707031 265.507812 224.707031 262.375 C 224.707031 258.515625 227.808594 255.417969 231.640625 255.417969 "
        fill-opacity="1" fill-rule="nonzero" />
    <path fill="rgb(34.509277%, 75.689697%, 95.689392%)"
        d="M 231.640625 287.9375 L 366.464844 287.9375 C 370.328125 287.9375 373.433594 291.761719 373.433594 294.898438 C 373.433594 298.722656 370.328125 301.855469 366.464844 301.855469 L 231.640625 301.855469 C 227.808594 301.855469 224.707031 297.996094 224.707031 294.898438 C 224.707031 291.039062 227.808594 287.9375 231.640625 287.9375 "
        fill-opacity="1" fill-rule="nonzero" />
    <path fill="rgb(34.509277%, 75.689697%, 95.689392%)"
        d="M 127.085938 109.140625 L 192.15625 109.140625 C 199.847656 109.140625 206.085938 115.371094 206.085938 123.058594 L 206.085938 183.414062 C 206.085938 191.132812 199.847656 197.367188 192.15625 197.367188 L 127.085938 197.367188 C 119.359375 197.367188 113.121094 191.132812 113.121094 183.414062 L 113.121094 123.058594 C 113.121094 115.371094 119.359375 109.140625 127.085938 109.140625 "
        fill-opacity="1" fill-rule="nonzero" />
    <g clip-path="url(#id3)">
        <path fill="rgb(34.509277%, 75.689697%, 95.689392%)"
            d="M 127.085938 218.246094 L 192.15625 218.246094 C 199.847656 218.246094 206.085938 224.511719 206.085938 232.195312 L 206.085938 292.554688 C 206.085938 300.273438 199.847656 306.507812 192.15625 306.507812 L 127.085938 306.507812 C 119.359375 306.507812 113.121094 300.273438 113.121094 292.554688 L 113.121094 232.195312 C 113.121094 224.511719 119.359375 218.246094 127.085938 218.246094 "
            fill-opacity="1" fill-rule="nonzero" />
    </g>
</svg>