<svg xmlns="http://www.w3.org/2000/svg" data-name="Layer 1" viewBox="0 0 64 64">
    <path
        d="M43,1A19.978,19.978,0,0,0,25.7,11H7a1,1,0,0,0-1,1V49L1.523,60.641A1,1,0,0,0,2.456,62H35V49a2.981,2.981,0,0,1,.78-2H8V13H24.675a19.935,19.935,0,0,0,4.964,22.852c-.1-.088-.2-.162-.3-.252l-2.58,3.12-8.27-4.59a1,1,0,0,0-1.29.27l-6,8,1.6,1.2,5.48-7.3,8.23,4.57a1,1,0,0,0,1.26-.23l3.1-3.75c-.052-.04-.1-.088-.152-.128A19.879,19.879,0,0,0,40,40.751V48H38a1,1,0,0,0-1,1V62a1,1,0,0,0,1,1H48a1,1,0,0,0,1-1V49a1,1,0,0,0-1-1H46V40.751A19.9,19.9,0,0,0,56,36.18V47H50.22A2.981,2.981,0,0,1,51,49V62H61.544a1,1,0,0,0,.933-1.359L58,49V34.2A19.978,19.978,0,0,0,43,1Zm0,35.79A15.79,15.79,0,1,1,58.79,21,15.75,15.75,0,0,1,43,36.79Z"
        fill="#595bd4" class="color000000 svgShape"></path>
    <path
        d="M45.6,19.46l.359,3.27L48,22.52l-.626-5.63a1.01,1.01,0,0,0-1.128-.88l-5.764.6L40.7,18.6l3.262-.34L32.03,32.34a15.9,15.9,0,0,0,1.559,1.31Z"
        fill="#595bd4" class="color000000 svgShape"></path>
</svg>