<svg xmlns="http://www.w3.org/2000/svg" xmlns:xlink="http://www.w3.org/1999/xlink" width="500" zoomAndPan="magnify" viewBox="0 0 375 239.999995" height="320" preserveAspectRatio="xMidYMid meet" version="1.0"><defs><g><g id="id1"/></g></defs><g fill="rgb(22.349548%, 25.878906%, 30.589294%)" fill-opacity="1"><g transform="translate(13.036622, 191.999078)"><g><path d="M 44.984375 -155.859375 C 57.296875 -155.859375 66.457031 -152.59375 72.46875 -146.0625 C 78.488281 -139.53125 81.5 -129.957031 81.5 -117.34375 L 81.5 -97.078125 C 81.5 -84.460938 78.488281 -74.890625 72.46875 -68.359375 C 66.457031 -61.828125 57.296875 -58.5625 44.984375 -58.5625 L 33.40625 -58.5625 L 33.40625 0 L 8.90625 0 L 8.90625 -155.859375 Z M 33.40625 -133.59375 L 33.40625 -80.828125 L 44.984375 -80.828125 C 48.835938 -80.828125 51.800781 -81.863281 53.875 -83.9375 C 55.957031 -86.019531 57 -89.878906 57 -95.515625 L 57 -118.90625 C 57 -124.539062 55.957031 -128.394531 53.875 -130.46875 C 51.800781 -132.550781 48.835938 -133.59375 44.984375 -133.59375 Z M 33.40625 -133.59375 "/></g></g></g><g fill="rgb(22.349548%, 25.878906%, 30.589294%)" fill-opacity="1"><g transform="translate(98.088522, 191.999078)"><g><path d="M 5.796875 -118.453125 C 5.796875 -131.066406 8.800781 -140.75 14.8125 -147.5 C 20.820312 -154.257812 29.835938 -157.640625 41.859375 -157.640625 C 53.878906 -157.640625 62.894531 -154.257812 68.90625 -147.5 C 74.925781 -140.75 77.9375 -131.066406 77.9375 -118.453125 L 77.9375 -113.5625 L 54.78125 -113.5625 L 54.78125 -120.015625 C 54.78125 -125.648438 53.703125 -129.617188 51.546875 -131.921875 C 49.390625 -134.222656 46.382812 -135.375 42.53125 -135.375 C 38.664062 -135.375 35.65625 -134.222656 33.5 -131.921875 C 31.351562 -129.617188 30.28125 -125.648438 30.28125 -120.015625 C 30.28125 -114.671875 31.46875 -109.957031 33.84375 -105.875 C 36.21875 -101.789062 39.1875 -97.929688 42.75 -94.296875 C 46.3125 -90.660156 50.132812 -87.023438 54.21875 -83.390625 C 58.300781 -79.753906 62.125 -75.78125 65.6875 -71.46875 C 69.25 -67.164062 72.21875 -62.269531 74.59375 -56.78125 C 76.96875 -51.289062 78.15625 -44.832031 78.15625 -37.40625 C 78.15625 -24.789062 75.070312 -15.101562 68.90625 -8.34375 C 62.75 -1.59375 53.660156 1.78125 41.640625 1.78125 C 29.617188 1.78125 20.523438 -1.59375 14.359375 -8.34375 C 8.203125 -15.101562 5.125 -24.789062 5.125 -37.40625 L 5.125 -46.984375 L 28.28125 -46.984375 L 28.28125 -35.84375 C 28.28125 -30.207031 29.429688 -26.273438 31.734375 -24.046875 C 34.035156 -21.816406 37.113281 -20.703125 40.96875 -20.703125 C 44.832031 -20.703125 47.910156 -21.816406 50.203125 -24.046875 C 52.503906 -26.273438 53.65625 -30.207031 53.65625 -35.84375 C 53.65625 -41.1875 52.46875 -45.898438 50.09375 -49.984375 C 47.71875 -54.066406 44.75 -57.925781 41.1875 -61.5625 C 37.625 -65.195312 33.800781 -68.832031 29.71875 -72.46875 C 25.644531 -76.113281 21.828125 -80.085938 18.265625 -84.390625 C 14.703125 -88.691406 11.734375 -93.585938 9.359375 -99.078125 C 6.984375 -104.578125 5.796875 -111.035156 5.796875 -118.453125 Z M 5.796875 -118.453125 "/></g></g></g><g fill="rgb(22.349548%, 25.878906%, 30.589294%)" fill-opacity="1"><g transform="translate(181.35922, 191.999078)"><g><path d="M 79.9375 -58.109375 L 79.9375 -37.40625 C 79.9375 -24.789062 76.851562 -15.101562 70.6875 -8.34375 C 64.53125 -1.59375 55.441406 1.78125 43.421875 1.78125 C 31.398438 1.78125 22.304688 -1.59375 16.140625 -8.34375 C 9.984375 -15.101562 6.90625 -24.789062 6.90625 -37.40625 L 6.90625 -118.453125 C 6.90625 -131.066406 9.984375 -140.75 16.140625 -147.5 C 22.304688 -154.257812 31.398438 -157.640625 43.421875 -157.640625 C 55.441406 -157.640625 64.53125 -154.257812 70.6875 -147.5 C 76.851562 -140.75 79.9375 -131.066406 79.9375 -118.453125 L 79.9375 -103.3125 L 56.78125 -103.3125 L 56.78125 -120.015625 C 56.78125 -125.648438 55.628906 -129.617188 53.328125 -131.921875 C 51.023438 -134.222656 47.945312 -135.375 44.09375 -135.375 C 40.226562 -135.375 37.144531 -134.222656 34.84375 -131.921875 C 32.539062 -129.617188 31.390625 -125.648438 31.390625 -120.015625 L 31.390625 -35.84375 C 31.390625 -30.207031 32.539062 -26.273438 34.84375 -24.046875 C 37.144531 -21.816406 40.226562 -20.703125 44.09375 -20.703125 C 47.945312 -20.703125 51.023438 -21.816406 53.328125 -24.046875 C 55.628906 -26.273438 56.78125 -30.207031 56.78125 -35.84375 L 56.78125 -58.109375 Z M 79.9375 -58.109375 "/></g></g></g><path fill="rgb(19.60907%, 78.039551%, 39.99939%)" d="M 277.800781 41.035156 L 363.234375 41.035156 L 363.234375 192.578125 L 277.800781 192.578125 L 277.800781 41.035156 " fill-opacity="1" fill-rule="nonzero"/></svg>